<svg xmlns="http://www.w3.org/2000/svg" width="1920" height="1080" viewBox="0 0 1920 1080" version="1.1"><path d="M 423.265 318.246 C 411.036 323.811, 401.280 328.620, 401.585 328.932 C 401.890 329.244, 405.466 330.625, 409.530 332 L 416.920 334.500 383.460 407.725 C 365.057 447.998, 350 481.195, 350 481.495 C 350 481.796, 359.110 481.920, 370.244 481.771 L 390.488 481.500 417.702 415 C 432.670 378.425, 445.074 348.083, 445.267 347.574 C 445.459 347.065, 449.106 348.575, 453.371 350.929 C 457.635 353.283, 461.289 355.044, 461.490 354.844 C 461.691 354.643, 458.789 344.133, 455.042 331.489 C 450.688 316.795, 447.737 308.433, 446.865 308.314 C 446.114 308.211, 435.494 312.681, 423.265 318.246" stroke="none" fill="#3cac6c" fill-rule="evenodd"/><path d="M 361.384 314.913 C 355.450 317.608, 351.755 322.903, 351.209 329.497 C 350.825 334.127, 352.210 339.683, 361.478 370.675 C 367.371 390.379, 372.530 406.858, 372.942 407.296 C 373.355 407.734, 378.951 396.088, 385.378 381.415 L 397.064 354.738 392.924 340.619 C 388.411 325.230, 386.431 320.650, 382.847 317.317 C 377.831 312.650, 368.635 311.620, 361.384 314.913 M 411.136 456.250 C 405.551 469.587, 400.986 481.063, 400.991 481.750 C 400.998 482.705, 405.372 483, 419.500 483 C 429.675 483, 438 482.727, 438 482.393 C 438 481.393, 421.916 432, 421.590 432 C 421.425 432, 416.720 442.913, 411.136 456.250 M 990.045 451.092 C 978.693 453.318, 967.546 462.013, 962.025 472.951 C 957.275 482.360, 955.221 491.938, 954.420 508.407 L 953.710 523 944.855 523 L 936 523 936 534.500 L 936 546 945 546 L 954 546 954 598.500 L 954 651 968 651 L 982 651 982 598.500 L 982 546 1000.500 546 L 1019 546 1019 534.500 L 1019 523 1000.391 523 L 981.782 523 982.248 508.250 C 982.585 497.591, 983.204 492.157, 984.482 488.658 C 988.307 478.185, 997.707 473.315, 1008.196 476.373 C 1011.113 477.223, 1016.026 479.442, 1019.114 481.304 L 1024.727 484.690 1025.358 476.595 C 1025.704 472.143, 1025.991 466.424, 1025.994 463.887 L 1026 459.274 1018.750 455.629 C 1008.369 450.411, 1000.150 449.112, 990.045 451.092 M 1271 551 L 1271 650 1285 650 L 1299 650 1299 627.624 L 1299 605.247 1310.581 594.446 C 1317.158 588.312, 1322.451 584.091, 1322.831 584.677 C 1323.199 585.244, 1333.850 600.156, 1346.500 617.813 L 1369.500 649.918 1385.318 649.959 L 1401.136 650 1399.171 647.250 C 1398.090 645.737, 1384.565 626.950, 1369.117 605.500 L 1341.028 566.500 1370.514 536.994 C 1386.731 520.765, 1400 507.153, 1400 506.744 C 1400 506.335, 1392.688 506.006, 1383.750 506.013 L 1367.500 506.027 1333.500 539.263 L 1299.500 572.500 1299.242 512.250 L 1298.984 452 1284.992 452 L 1271 452 1271 551 M 1042.694 454.639 C 1041.592 455.741, 1041.876 622.673, 1042.992 629.485 C 1045.758 646.381, 1056.959 654.420, 1077.500 654.251 C 1085.900 654.183, 1099.331 651.486, 1108.347 648.058 L 1111.160 646.989 1107.175 642.461 C 1104.983 639.971, 1101.909 634.993, 1100.345 631.399 C 1097.971 625.945, 1097.169 624.949, 1095.500 625.376 C 1081.209 629.033, 1080.442 629.144, 1076.869 628.076 C 1074.871 627.479, 1072.621 626.249, 1071.869 625.342 C 1070.743 623.986, 1070.411 608.664, 1070 539.097 L 1069.500 454.500 1056.444 454.222 C 1049.264 454.070, 1043.076 454.257, 1042.694 454.639 M 490.703 465.381 C 481.180 468.932, 477.686 472.691, 469.605 488.082 L 465.710 495.500 468.377 499.422 C 479.473 515.739, 472.742 539.264, 454.355 548.434 C 451.525 549.845, 448.682 551, 448.037 551 C 446.759 551, 447.351 553.753, 449.544 558 C 451.507 561.801, 458.054 567.716, 462.218 569.451 C 467.382 571.602, 478.442 571.438, 483.500 569.134 C 487.949 567.108, 493.575 561.313, 496.261 555.990 C 500.870 546.855, 522.151 494.025, 522.645 490.490 C 523.852 481.860, 518.914 471.792, 511.280 467.318 C 505.905 464.168, 496.364 463.270, 490.703 465.381 M 344 496.307 C 338.783 497.952, 330.658 506.537, 329.129 512.020 C 328.184 515.408, 327.961 526.167, 328.236 555.020 C 328.651 598.584, 329.038 601.320, 337.042 617.337 C 348.322 639.908, 366.256 655.295, 391 663.630 L 399.500 666.494 432.500 666.497 C 463.816 666.500, 465.959 666.381, 474.500 664.171 C 485.593 661.301, 499.614 654.610, 507.242 648.547 C 523.250 635.824, 533.384 614.284, 536.484 586.397 L 537.162 580.294 532.331 579.649 C 525.355 578.717, 515.569 573.427, 510.603 567.903 L 506.360 563.184 502.930 567.801 C 498.458 573.821, 492.455 578.311, 485.282 581.001 C 477.130 584.059, 464.844 583.561, 456.880 579.849 C 447.141 575.310, 440.411 568.002, 436.528 557.750 L 434.728 553 427.865 553 L 421.002 553 424.922 557.039 C 433.314 565.687, 438.806 577.360, 439.736 588.529 C 440.294 595.227, 439.080 597.250, 434.500 597.250 C 430.663 597.250, 429.293 595.448, 428.135 588.878 C 425.179 572.097, 414.899 560.124, 398.639 554.525 C 391.023 551.903, 388.595 548.620, 391.036 544.250 L 392.573 541.500 418.536 540.997 C 442.707 540.529, 444.776 540.345, 448.500 538.335 C 462.802 530.614, 466.375 514.077, 456.183 502.773 C 449.011 494.818, 450.710 495.034, 396 495.124 C 363.642 495.178, 346.335 495.571, 344 496.307 M 538.840 497.022 C 533.013 500.100, 530.572 504.172, 520.902 526.938 C 512.088 547.687, 511.834 548.501, 512.967 552.285 C 513.612 554.436, 515.944 558.154, 518.151 560.548 C 528.485 571.759, 542.335 571.758, 549.762 560.546 C 551.415 558.050, 555.970 548.164, 559.884 538.577 C 565.982 523.641, 567 520.287, 567 515.139 C 567 511.834, 566.521 507.863, 565.936 506.315 C 564.489 502.484, 560.174 498.042, 556.282 496.377 C 551.660 494.399, 543.214 494.711, 538.840 497.022 M 845.500 503.895 C 842.200 504.316, 837.166 505.439, 834.313 506.390 C 823.104 510.126, 809.830 521.481, 804.594 531.814 C 799.268 542.324, 799.031 545.237, 799.015 600.250 L 799 651 813 651 L 827 651 827 600.316 C 827 550.964, 827.055 549.518, 829.088 545.318 C 831.827 539.661, 838.194 534.317, 844.388 532.477 C 851.251 530.439, 871.908 530.487, 878.878 532.556 C 885.135 534.415, 891.573 539.877, 894.134 545.500 C 895.819 549.199, 895.958 553.314, 895.978 600.250 L 896 651 910 651 L 924 651 924 599.710 C 924 556.881, 923.747 547.450, 922.469 542.542 C 917.882 524.931, 904.062 510.916, 886 505.560 C 879.693 503.689, 855.043 502.676, 845.500 503.895 M 1461.760 504.031 C 1438.763 506.768, 1417.243 522.102, 1406.823 543.174 C 1400.514 555.935, 1399.500 560.687, 1399.500 577.500 C 1399.500 593.901, 1401.038 601.189, 1406.986 612.971 C 1423.672 646.026, 1461.831 660.894, 1497.021 648.052 C 1511.644 642.715, 1524.444 632.222, 1530.661 620.473 C 1535.848 610.670, 1536.190 611.215, 1522.500 607.449 C 1515.900 605.633, 1510.383 604.452, 1510.240 604.824 C 1508.503 609.343, 1502.962 616.774, 1498.989 619.914 C 1490.706 626.462, 1484.336 628.441, 1471.500 628.455 C 1461.655 628.465, 1459.896 628.185, 1454.747 625.787 C 1448.111 622.696, 1439.404 614.862, 1435.033 608.051 C 1432.125 603.520, 1428 593.133, 1428 590.343 C 1428 589.235, 1437.853 589, 1484.393 589 C 1537.036 589, 1540.830 588.884, 1541.453 587.262 C 1542.726 583.943, 1542.058 565.861, 1540.415 559.164 C 1536.761 544.275, 1527.100 528.665, 1515.684 519.204 C 1509.268 513.888, 1496.473 507.478, 1488.500 505.587 C 1480.411 503.668, 1469.928 503.058, 1461.760 504.031 M 646.210 563.750 C 646.499 618.321, 646.508 618.518, 648.799 623.910 C 655.721 640.203, 670.268 652.448, 686.799 655.895 C 694.951 657.595, 724.374 657.314, 731.458 655.469 C 751.791 650.173, 767.433 632.754, 770.043 612.500 C 770.663 607.685, 770.960 585.587, 770.787 557 L 770.500 509.500 756.750 509.222 L 743 508.944 742.956 559.222 C 742.909 613.284, 742.888 613.525, 737.625 620.424 C 736.191 622.306, 732.425 625.117, 729.258 626.672 C 723.676 629.414, 723.027 629.499, 708 629.460 C 690.850 629.417, 688.225 628.771, 681.618 622.970 C 679.563 621.166, 676.896 617.847, 675.691 615.595 C 673.530 611.556, 673.496 610.799, 673.207 560.250 L 672.915 509 659.417 509 L 645.920 509 646.210 563.750 M 1116.202 562.250 L 1116.501 615.500 1118.893 621.500 C 1125.060 636.974, 1135.862 647.431, 1151.580 653.142 C 1159.823 656.136, 1189.932 657.019, 1200.397 654.573 C 1218.966 650.232, 1234.245 635.903, 1239.145 618.234 C 1240.841 612.118, 1241 607.140, 1241 560.243 L 1241 508.944 1227.250 509.222 L 1213.500 509.500 1213 561.165 L 1212.500 612.830 1209.469 617.141 C 1207.802 619.513, 1204.237 622.813, 1201.547 624.476 L 1196.657 627.500 1178.500 627.500 L 1160.343 627.500 1155.448 624.474 C 1152.415 622.598, 1149.402 619.586, 1147.526 616.553 L 1144.500 611.659 1144.224 560.330 L 1143.947 509 1129.925 509 L 1115.903 509 1116.202 562.250 M 1460.500 528.411 C 1444.703 532.332, 1431.782 545.664, 1428.161 561.778 L 1427.213 566 1471.186 566 L 1515.159 566 1514.520 562.750 C 1513.323 556.667, 1507.097 545.370, 1502.208 540.411 C 1491.285 529.330, 1475.312 524.735, 1460.500 528.411" stroke="none" fill="#0c3454" fill-rule="evenodd"/></svg>